<?xml version="1.0"?>
<svg width="507.99631" height="486.46461" xmlns="http://www.w3.org/2000/svg" xmlns:svg="http://www.w3.org/2000/svg">
 <g class="layer">
  <title>Layer 1</title>
  <g id="svg_1">
   <path d="m339.28,144.86c-1.76,2.08 -3.99,3.72 -6.51,4.76l-7.21,8.13l-20.44,24.68l-13.81,8.35l-6.41,-11.04l30.27,-29.48l8.43,-8.58c0.68,-2.64 1.98,-5.09 3.79,-7.12c4.47,-5.17 10.75,-7.04 14.04,-4.2c3.28,2.84 2.32,9.33 -2.15,14.5z" fill="#ffafaf" id="svg_2"/>
   <path d="m215.76,169.38l13.29,-22.12l56.54,24.29l30.91,-25.25s12.26,10.56 12.7,10.94s-31.17,44.15 -33.41,44.1c-2.25,-0.05 -80.03,-31.96 -80.03,-31.96z" fill="#dedede" id="svg_3"/>
  </g>
  <path d="m0,479.24c0,0.66 0.53,1.19 1.19,1.19l505.62,0c0.66,0 1.19,-0.53 1.19,-1.19c0,-0.66 -0.53,-1.19 -1.19,-1.19l-505.62,0c-0.66,0 -1.19,0.53 -1.19,1.19z" fill="#3f3d58" id="svg_4"/>
  <g id="svg_5" transform="matrix(1 0 0 1 0 0)">
   <path d="m343.38,0c40.25,0 73,30.73 73,68.5c0,10.55 -2.63,21.05 -7.62,30.47l0.06,0l-1.32,2.3c-11.21,19.31 -17.44,41.31 -18.01,63.61c-0.17,6.79 -5.63,12.12 -12.43,12.12l-56.89,0c-7.33,0 -13.48,-5.25 -14.63,-12.49c-2.8,-17.62 -8.41,-34.59 -16.66,-50.45c-11.93,-12.56 -18.5,-28.73 -18.5,-45.56c0,-37.77 32.75,-68.5 73,-68.5zm62.35,100.33l0.47,-0.85c5.35,-9.5 8.18,-20.21 8.18,-30.98c0,-36.67 -31.85,-66.5 -71,-66.5s-71,29.83 -71,66.5c0,16.36 6.41,32.09 18.05,44.29l0.16,0.23c8.39,16.08 14.08,33.3 16.92,51.17c1,6.26 6.32,10.81 12.66,10.81l56.89,0c5.71,0 10.29,-4.47 10.44,-10.17c0.57,-22.61 6.87,-44.91 18.23,-64.5z" fill="#000000" id="svg_6"/>
   <path d="m384.93,172l-75.1,0c-2.39,0 -4.27,2.05 -4.05,4.43l0.7,7.73c0.59,6.48 2.64,12.74 5.98,18.31l0,0c0.56,0.93 1.61,1.44 2.69,1.31c22.26,-2.68 44.03,-2.77 65.29,-0.04c1.16,0.15 2.29,-0.44 2.81,-1.49l0.48,-0.96c2.41,-4.82 3.9,-10.04 4.39,-15.4l0.86,-9.46c0.21,-2.38 -1.66,-4.43 -4.05,-4.43z" fill="#000000" id="svg_7"/>
   <path d="m317.38,198.5l61.5,0l0,40.03c0,7.16 -5.81,12.97 -12.97,12.97l-35.56,0c-7.16,0 -12.97,-5.81 -12.97,-12.97l0,-40.03l0,0z" fill="#000000" id="svg_8"/>
   <path d="m356.04,262l-13.33,0c-1.46,0 -2.84,-0.71 -3.69,-1.9l-8.64,-12.1l38,0l-8.64,12.1c-0.86,1.19 -2.23,1.9 -3.7,1.9z" fill="#000000" id="svg_9"/>
   <path d="m366.13,35.33c-9.79,2.02 -19.57,4.05 -29.36,6.07c-4.4,0.92 -9.33,1.39 -13.32,3.58c-3.88,2.12 -6.6,6.56 -5.21,11.02c1.33,4.25 5.23,6.92 9.43,7.87c4.65,1.05 9.63,1.04 14.37,1.41c4.95,0.38 9.89,0.76 14.83,1.14c2.36,0.18 4.72,0.31 7.07,0.55c0.75,0.08 1.57,0.17 2.19,0.65c-0.01,-0.01 0.21,0.13 0.09,0.15c-0.03,0 -0.03,-0.16 -0.03,-0.17c0.1,-0.3 0.06,-0.01 -0.02,-0.01c-0.02,0 -0.73,0.46 -1.13,0.54c-1.06,0.2 -2.24,0.05 -3.32,0.03c-2.35,-0.04 -4.7,0.01 -7.04,0.14c-4.72,0.25 -9.43,0.84 -14.07,1.73c-4.56,0.87 -9.1,2.04 -13.49,3.59c-4.25,1.5 -8.7,4.36 -8.81,9.39c-0.11,4.74 3.99,8.06 8.17,9.25c2.15,0.61 4.42,0.83 6.62,1.16c2.46,0.37 4.92,0.73 7.38,1.1c4.84,0.72 9.68,1.44 14.52,2.16c2.46,0.36 4.92,0.73 7.38,1.1c1.15,0.17 2.3,0.31 3.45,0.51c0.42,0.07 0.81,0.2 1.23,0.29c-0.28,-0.06 0.07,-0.06 0.01,0.01c0.18,0.11 0.18,0.09 0,-0.05l-0.12,-0.19c-0.28,-0.79 -0.27,-0.89 0.24,-1.83c0.1,-0.18 0.3,0.01 0.04,-0.02c-0.27,-0.03 0.17,-0.04 -0.12,0.08c-0.15,0.06 -0.3,0.1 -0.46,0.14c-1.13,0.32 -2.33,0.48 -3.49,0.71c-2.41,0.48 -4.82,0.95 -7.23,1.42c-4.74,0.93 -9.48,1.86 -14.22,2.79c-8.35,1.64 -17.22,3.86 -22.23,11.4c-1.08,1.64 -1.88,3.53 -2.27,5.45c-0.32,1.59 0.46,3.24 2.1,3.69c1.48,0.41 3.36,-0.5 3.69,-2.09c1.58,-7.74 10.05,-10.52 17.02,-12c4.61,-0.98 9.26,-1.83 13.89,-2.74c4.67,-0.92 9.41,-1.66 14.04,-2.76c1.94,-0.47 4.05,-1.66 4.6,-3.74c0.59,-2.27 -0.53,-4.46 -2.59,-5.52c-1.97,-1.01 -4.32,-1.09 -6.48,-1.41c-2.37,-0.36 -4.75,-0.71 -7.13,-1.06c-4.84,-0.72 -9.68,-1.44 -14.52,-2.16c-2.38,-0.36 -4.75,-0.71 -7.13,-1.07c-2.21,-0.32 -4.47,-0.55 -6.62,-1.16c-1.46,-0.41 -2.95,-1.12 -3.59,-2.51c-0.21,-0.44 -0.26,-0.77 -0.12,-1.27c0.2,-0.69 0.74,-1.33 1.34,-1.81c1.38,-1.09 3.26,-1.58 4.9,-2.11c2.17,-0.69 4.35,-1.31 6.55,-1.85c4.38,-1.08 8.82,-1.87 13.31,-2.3c2.33,-0.23 4.68,-0.38 7.03,-0.44c2.22,-0.05 4.44,0.08 6.66,0.01c2.36,-0.07 4.79,-0.7 6.42,-2.53c1.67,-1.89 2.07,-4.46 0.91,-6.72c-2.3,-4.48 -8.39,-4.04 -12.64,-4.37c-4.86,-0.37 -9.72,-0.75 -14.58,-1.12c-4.55,-0.35 -9.23,-0.43 -13.73,-1.13c-1.67,-0.26 -3.6,-0.73 -4.86,-1.73c-1.15,-0.91 -1.9,-2.1 -1.81,-3.3c0.09,-1.12 1.23,-2.35 2.42,-3.03c1.67,-0.96 3.64,-1.32 5.51,-1.71c9.6,-2 19.22,-3.98 28.83,-5.97c2.36,-0.49 4.73,-0.98 7.09,-1.47c1.59,-0.33 2.51,-2.2 2.1,-3.69c-0.46,-1.65 -2.1,-2.42 -3.69,-2.09l0,0z" fill="#000000" id="svg_10"/>
  </g>
  <rect fill="#ffafaf" height="38.15" id="svg_11" width="19.65" x="220.37" y="131"/>
  <path d="m272.47,237.3l-47.4,-3.47s-19.65,45.08 -4.62,73.98l10.4,60.11l-4.11,98.94l21.53,0l33.45,-159.05l-9.25,-70.51z" fill="#000000" id="svg_12" transform="matrix(1 0 0 1 0 0)"/>
  <polygon fill="#000000" id="svg_13" points="263.22157 287.79173 281.71723 303.89042 272.4694 461.55826 251.66179 461.55826 263.22157 287.79173" transform="matrix(1 0 0 1 0 0)"/>
  <circle cx="229.93" cy="113.93" fill="#ffafaf" id="svg_14" r="24.57"/>
  <path d="m226.99,443.38l25.38,4.01l4.77,18.21s20.61,7.75 10.68,16.18c-9.93,8.43 -46.61,4.07 -49.51,-1.98s8.68,-36.42 8.68,-36.42z" fill="#ffffff" id="svg_15" transform="matrix(1 0 0 1 0 0)"/>
  <path d="m247.8,443.38l25.38,4.01l4.77,18.21s20.61,7.75 10.68,16.18c-9.93,8.43 -46.61,4.07 -49.51,-1.98c-2.9,-6.04 8.68,-36.42 8.68,-36.42z" fill="#ffffff" id="svg_16" transform="matrix(1 0 0 1 0 0)"/>
  <path d="m317.91,233.39c-2.73,0.03 -5.42,-0.59 -7.86,-1.82l-10.86,-0.16l-32.04,0.62l-15.34,-5.01l4.18,-12.06l42.09,3.69l12,0.79c2.45,-1.22 5.15,-1.83 7.88,-1.78c6.82,0.01 12.35,3.55 12.34,7.89c-0.02,4.35 -5.56,7.86 -12.39,7.84z" fill="#ffafaf" id="svg_17"/>
  <path d="m241.84,145.4l-24.33,0l-8.04,24.27l15.6,64.16l47.4,3.47l-2.89,-26.01l0,0c5.59,-9.09 5.15,-20.66 -1.13,-29.3l-26.61,-36.59z" fill="#dedede" id="svg_18"/>
  <path d="m218.72,155.8l25.43,-4.36l18.49,58.69l39.31,6.94l0,16.76c0,0.58 -53.8,5.2 -55.22,3.47c-1.43,-1.74 -28.01,-81.5 -28.01,-81.5z" fill="#dedede" id="svg_19"/>
  <path d="m242.2,99.69c3.02,4.89 0.24,11.34 -3.48,15.73s-8.51,8.24 -10.17,13.75c-1.49,4.94 -0.14,10.26 1.61,15.11c1.75,4.85 3.93,9.69 4.11,14.84c0.18,5.16 -2.26,10.85 -7.11,12.59c-4.98,1.79 -10.87,-1.02 -15.67,1.21c-6.25,2.91 -7.67,12.97 -14.48,14.02c-4.2,0.64 -8.08,-3 -9.25,-7.07c-1.18,-4.08 -0.33,-8.43 0.51,-12.59c2.32,-11.39 4.65,-22.78 6.97,-34.16c1.93,-9.48 3.86,-18.96 5.79,-28.43c1.15,-5.66 2.52,-11.71 6.77,-15.62c5.2,-4.77 13.03,-4.89 20.08,-4.6c6.48,0.26 13.22,0.71 18.85,3.9c5.64,3.2 9.79,10 7.83,16.18c-1.82,-4.35 -7.26,-6.79 -11.72,-5.26" fill="#000000" id="svg_20"/>
 </g>
</svg>